<?xml version="1.0" encoding="iso-8859-1"?>
<!-- Uploaded to: SVG Repo, www.svgrepo.com, Generator: SVG Repo Mixer Tools -->
<!DOCTYPE svg PUBLIC "-//W3C//DTD SVG 1.1//EN" "http://www.w3.org/Graphics/SVG/1.1/DTD/svg11.dtd">
<svg fill="#000000" version="1.1" id="Capa_1" xmlns="http://www.w3.org/2000/svg" xmlns:xlink="http://www.w3.org/1999/xlink" 
	 width="800px" height="800px" viewBox="0 0 380.721 380.721"
	 xml:space="preserve">
<g>
	<path d="M256.157,149.812c1.835-4.102,2.997-8.859,3.137-14.431c0-30.017-13.757-46.277-23.145-55.653
		c1.487,8.336,14.384,40.642-15.313,29.384C191.133,97.87,192.073,20.949,204.884,0c-19.072,6.878-32.207,55.654-32.207,55.654
		l-0.07,0.372c-0.272-0.819-0.569-1.644-0.889-2.417c-1.383-3.329-3.085-6.233-4.926-8.528c-1.835-2.312-3.869-4.008-5.699-5.083
		c-1.836-1.069-3.497-1.476-4.595-1.557c-0.523-0.093-0.964,0-1.238-0.012c-0.261,0.012-0.406,0.023-0.406,0.023
		s0.134,0.07,0.372,0.203c0.238,0.157,0.593,0.285,0.988,0.604c0.842,0.522,1.871,1.586,2.87,3.009
		c2.022,2.87,3.637,7.703,4.223,13.564c0.309,2.917,0.309,6.129,0.047,9.446c-0.262,3.334-0.837,6.809-1.737,10.282
		c-0.918,3.486-2.167,6.971-3.688,10.399c-0.761,1.714-1.679,3.375-2.557,5.054l-1.359,2.347l-0.976,1.499
		c0.168-0.772,0.319-1.551,0.453-2.312c0.633-3.747,0.918-7.418,0.749-10.858c-0.168-3.427-0.842-6.617-1.894-9.271
		c-1.046-2.649-2.422-4.711-3.724-6.187c-1.331-1.452-2.556-2.341-3.387-2.899c-0.86-0.552-1.313-0.802-1.313-0.802
		s0.227,0.477,0.668,1.359c0.441,0.854,0.929,2.213,1.417,3.829c0.412,1.655,0.726,3.642,0.68,5.867
		c-0.064,2.237-0.395,4.7-1.121,7.378c-1.395,5.327-4.078,11.421-7.279,18.073c-1.598,3.317-3.357,6.756-5.06,10.347
		c-1.761,3.596-3.451,7.308-5.142,11.194c-0.686,1.679-1.76,4.357-2.341,6.739c-0.616,2.44-0.965,4.938-1.034,7.39
		c-0.122,2.458,0.035,4.886,0.441,7.221c0.331,2.33,0.924,4.578,1.661,6.698c0.041,0.093,0.076,0.186,0.11,0.273
		c-12.612,4.578-20.274,10.503-20.274,16.975c0,10.259,19.107,19.119,46.864,23.359c0.476,24.667,17.073,191.488,37.452,191.488
		c20.461,0,37.064-167.751,37.447-191.668c27.095-4.311,45.662-13.065,45.662-23.167
		C274.084,159.821,267.357,154.238,256.157,149.812z M161.731,172.897c-2.771-1.301-5.065-2.335-7.018-3.201
		c-2.597-1.749-5.461-4.45-8.017-8.058c-3.201-4.427-5.949-10.277-7.105-16.539c-0.558-3.125-0.75-6.327-0.383-9.423
		c0.122-1.557,0.54-3.067,0.906-4.555c0.227-0.75,0.441-1.487,0.749-2.202c0.192-0.546,0.546-1.342,0.895-2.167
		c-0.012,0.75-0.035,1.528-0.012,2.26c0.273,2.312,0.308,4.537,0.958,6.675c0.906,4.299,2.858,8.116,4.99,11.183
		c1.174,1.505,2.236,2.928,3.532,4.038c0.627,0.569,1.19,1.156,1.807,1.644c0.645,0.459,1.261,0.9,1.871,1.319
		c1.173,0.866,2.411,1.464,3.521,2.01c1.081,0.581,2.178,0.976,3.166,1.284c1.935,0.738,3.439,0.883,4.473,1.069
		c1.034,0.168,1.592,0.25,1.592,0.25s-0.441-0.343-1.249-1.022c-0.418-0.32-0.918-0.727-1.511-1.191
		c-0.615-0.459-1.167-1.116-1.83-1.72c-0.668-0.633-1.382-1.29-2.062-2.179c-0.686-0.848-1.499-1.655-2.138-2.713
		c-0.337-0.488-0.691-0.999-1.051-1.522c-0.331-0.534-0.604-1.145-0.912-1.725c-0.668-1.122-1.133-2.417-1.621-3.712
		c-0.842-2.655-1.51-5.525-1.452-8.639c-0.116-1.51,0.157-3.154,0.238-4.723c0.168-0.75,0.325-1.586,0.465-2.405l0.215-1.237
		l0.372-1.249c0.238-0.819,0.5-1.667,0.697-2.51c0.313-0.831,0.633-1.679,0.941-2.533c0.546-1.702,1.487-3.358,2.213-5.083
		c0.761-1.726,1.871-3.34,2.713-5.066c0.081-0.157,0.18-0.285,0.272-0.441c-1.127,10.375,0.558,27.85,22.297,35.315
		c-23.139-44.714-1.877-78.467-1.877-78.467s6.257,75.347,59.721,64.094c3.74,29.622-27.421,42.838-32.439,44.767l0,0
		C201.125,177.284,181.901,182.32,161.731,172.897z"/>
</g>
</svg>